<svg width="61" height="42" viewBox="0 0 61 42" fill="none" xmlns="http://www.w3.org/2000/svg">
<g id="62093bed21fdcc09e3609efb_abstract 1" clip-path="url(#clip0_2_12356)">
<path id="Vector" d="M18.4822 0.18229C18.4851 0.120971 18.4882 0.0602012 18.4916 0C18.4887 0.0609544 18.4856 0.121717 18.4822 0.18229C18.1959 6.43217 21.3037 18.4008 36.0938 17.6859C30.0526 18.1067 18.081 22.3722 18.4902 36.0652C18.3025 30.093 14.4124 18.2919 0.374006 18.2264C0.246823 18.2283 0.122103 18.2286 0 18.2273C0.125462 18.2261 0.250129 18.2258 0.374006 18.2264C6.33339 18.1348 17.6991 14.4512 18.4822 0.18229Z" fill="#006BFF"/>
<path id="Vector_2" d="M49.8081 20.4531C49.8098 20.4163 49.8117 20.3798 49.8137 20.3438C49.812 20.3803 49.8101 20.4168 49.8081 20.4531C49.6363 24.203 51.501 31.3842 60.375 30.9553C56.7503 31.2078 49.5674 33.7671 49.8129 41.9829C49.7002 38.3996 47.3662 31.3189 38.9432 31.2796C38.8669 31.2808 38.792 31.2809 38.7188 31.2802C38.794 31.2794 38.8688 31.2792 38.9432 31.2796C42.5188 31.2246 49.3382 29.0145 49.8081 20.4531Z" fill="#19DEBB"/>
</g>
<defs>
<clipPath id="clip0_2_12356">
<rect width="60.375" height="42" fill="white"/>
</clipPath>
</defs>
</svg>
