<svg width="36" height="36" viewBox="0 0 36 36" fill="none" xmlns="http://www.w3.org/2000/svg">
<g id="Frame" clip-path="url(#clip0_2_12220)">
<path id="Vector" d="M18 3C26.2845 3 33 9.7155 33 18C33 26.2845 26.2845 33 18 33C9.7155 33 3 26.2845 3 18C3 9.7155 9.7155 3 18 3ZM18 6C11.373 6 6 11.373 6 18C6 24.627 11.373 30 18 30C24.627 30 30 24.627 30 18C30 11.373 24.627 6 18 6ZM24.363 9.5145L26.4855 11.6355L20.8995 17.2245C20.9655 17.472 21 17.7315 21 18C21 19.6575 19.6575 21 18 21C16.3425 21 15 19.6575 15 18C15 16.3425 16.3425 15 18 15C18.2685 15 18.528 15.0345 18.7755 15.1005L24.3645 9.5145H24.363Z" fill="white"/>
<path id="Vector_2" opacity="0.5" d="M17.9999 7.5C19.5269 7.5 20.9774 7.8255 22.2869 8.412L19.9424 10.755C19.3229 10.59 18.6719 10.5 17.9999 10.5C13.8584 10.5 10.4999 13.8585 10.4999 18C10.4999 20.07 11.3399 21.945 12.6959 23.304L10.5749 25.425L10.3409 25.1835C8.57994 23.3055 7.49994 20.778 7.49994 18C7.49994 12.201 12.2009 7.5 17.9999 7.5ZM27.5879 13.7145C28.1729 15.0225 28.4999 16.4745 28.4999 18C28.4999 20.8995 27.3239 23.5245 25.4249 25.425L23.3039 23.304C24.6599 21.945 25.4999 20.07 25.4999 18C25.4999 17.328 25.4114 16.677 25.2449 16.0575L27.5879 13.7145Z" fill="white"/>
</g>
<defs>
<clipPath id="clip0_2_12220">
<rect width="36" height="36" fill="white"/>
</clipPath>
</defs>
</svg>
