<svg width="36" height="36" viewBox="0 0 36 36" fill="none" xmlns="http://www.w3.org/2000/svg">
<g id="Frame" clip-path="url(#clip0_2_12171)">
<path id="Vector" d="M18.771 1.96348L31.9275 9.85648C32.0387 9.92307 32.1308 10.0174 32.1947 10.1301C32.2587 10.2429 32.2923 10.3703 32.2923 10.5C32.2923 10.6296 32.2587 10.757 32.1947 10.8698C32.1308 10.9826 32.0387 11.0769 31.9275 11.1435L18 19.5L4.0725 11.1435C3.96127 11.0769 3.86919 10.9826 3.80527 10.8698C3.74134 10.757 3.70773 10.6296 3.70773 10.5C3.70773 10.3703 3.74134 10.2429 3.80527 10.1301C3.86919 10.0174 3.96127 9.92307 4.0725 9.85648L17.2275 1.96348C17.4608 1.82332 17.7278 1.74927 18 1.74927C18.2722 1.74927 18.5392 1.82332 18.7725 1.96348H18.771Z" fill="white"/>
<path id="Vector_2" opacity="0.5" d="M30.1245 15.75L31.9275 16.8315C32.0388 16.8981 32.1308 16.9924 32.1948 17.1052C32.2587 17.2179 32.2923 17.3454 32.2923 17.475C32.2923 17.6046 32.2587 17.7321 32.1948 17.8448C32.1308 17.9576 32.0388 18.0519 31.9275 18.1185L18 26.475L4.07254 18.1185C3.96131 18.0519 3.86924 17.9576 3.80531 17.8448C3.74138 17.7321 3.70778 17.6046 3.70778 17.475C3.70778 17.3454 3.74138 17.2179 3.80531 17.1052C3.86924 16.9924 3.96131 16.8981 4.07254 16.8315L5.87554 15.75L18 23.025L30.1245 15.75ZM30.1245 22.8L31.9275 23.8815C32.0388 23.9481 32.1308 24.0424 32.1948 24.1552C32.2587 24.2679 32.2923 24.3954 32.2923 24.525C32.2923 24.6546 32.2587 24.7821 32.1948 24.8948C32.1308 25.0076 32.0388 25.1019 31.9275 25.1685L18.7725 33.0615C18.5392 33.2017 18.2722 33.2757 18 33.2757C17.7279 33.2757 17.4608 33.2017 17.2275 33.0615L4.07254 25.1685C3.96131 25.1019 3.86924 25.0076 3.80531 24.8948C3.74138 24.7821 3.70778 24.6546 3.70778 24.525C3.70778 24.3954 3.74138 24.2679 3.80531 24.1552C3.86924 24.0424 3.96131 23.9481 4.07254 23.8815L5.87554 22.8L18 30.075L30.1245 22.8Z" fill="white"/>
</g>
<defs>
<clipPath id="clip0_2_12171">
<rect width="36" height="36" fill="white"/>
</clipPath>
</defs>
</svg>
