<svg width="41" height="10" viewBox="0 0 41 10" fill="none" xmlns="http://www.w3.org/2000/svg">
<path d="M36.2412 9.15589C38.5897 9.15589 40.4935 7.2041 40.4935 4.79645C40.4935 2.3888 38.5897 0.437012 36.2412 0.437012C33.8928 0.437012 31.989 2.3888 31.989 4.79645C31.989 7.2041 33.8928 9.15589 36.2412 9.15589Z" fill="#77F28A"/>
<path d="M5.1654 9.15589C7.51385 9.15589 9.41765 7.2041 9.41765 4.79645C9.41765 2.3888 7.51385 0.437012 5.1654 0.437012C2.81695 0.437012 0.913147 2.3888 0.913147 4.79645C0.913147 7.2041 2.81695 9.15589 5.1654 9.15589Z" fill="#EF5C00"/>
<path d="M20.3878 9.15589C22.7362 9.15589 24.64 7.2041 24.64 4.79645C24.64 2.3888 22.7362 0.437012 20.3878 0.437012C18.0393 0.437012 16.1355 2.3888 16.1355 4.79645C16.1355 7.2041 18.0393 9.15589 20.3878 9.15589Z" fill="#FFDB26"/>
</svg>
