<svg width="89" height="32" viewBox="0 0 89 32" fill="none" xmlns="http://www.w3.org/2000/svg">
<g id="nike-4" clip-path="url(#clip0_2_12260)">
<g id="Group">
<path id="Vector" fill-rule="evenodd" clip-rule="evenodd" d="M11.3449 1.41354C5.58168 8.18105 0.0560397 16.5738 0.00111952 22.847C-0.0566462 23.9713 0.141978 25.0941 0.581977 26.1304C1.02198 27.1667 1.69183 28.0895 2.5409 28.8288C4.84062 30.8404 7.80579 31.9258 10.8607 31.8741C15.0291 31.8797 19.1671 30.1928 22.4052 28.9016C27.8625 26.7194 88.1895 0.52136 88.1895 0.52136C88.7712 0.229947 88.6625 -0.133195 87.9339 0.0472571C87.6403 0.121231 22.2539 17.8392 22.2539 17.8392C21.0154 18.1894 19.7357 18.3726 18.4487 18.3839C13.4241 18.4141 8.95311 15.6244 8.98897 9.74683C9.13216 6.82634 9.9378 3.97669 11.3449 1.41354Z" fill="#757693" fill-opacity="0.65"/>
</g>
</g>
<defs>
<clipPath id="clip0_2_12260">
<rect width="88.5638" height="31.875" fill="white"/>
</clipPath>
</defs>
</svg>
